<?xml version="1.0" encoding="utf-8"?>
<svg width="26px" height="20px" viewBox="0 0 26 20" version="1.1" xmlns:xlink="http://www.w3.org/1999/xlink" xmlns="http://www.w3.org/2000/svg">
  <defs>
    <path d="M0 0L25.8182 0L25.8182 20L0 20L0 0Z" id="path_1" />
    <clipPath id="mask_1">
      <use xlink:href="#path_1" />
    </clipPath>
  </defs>
  <g id="discord">
    <g id="Mask-group">
      <path d="M0 0L25.8182 0L25.8182 20L0 20L0 0Z" id="Rectangle" fill="none" fill-rule="evenodd" stroke="none" />
      <g clip-path="url(#mask_1)">
        <g id="Group" transform="translate(0 0.14972496)">
          <path d="M21.8562 1.63129C20.2106 0.876238 18.446 0.319947 16.601 0.00133653C16.5674 -0.00481255 16.5338 0.0105543 16.5165 0.0412889C16.2896 0.444929 16.0382 0.971511 15.8621 1.3854C13.8777 1.08831 11.9035 1.08831 9.95971 1.3854C9.78364 0.962311 9.52313 0.444929 9.29516 0.0412889C9.27785 0.0115798 9.24429 -0.00378711 9.21069 0.00133653C7.36669 0.318929 5.60207 0.87522 3.95549 1.63129C3.94124 1.63744 3.92902 1.64769 3.92091 1.661C0.573799 6.66151 -0.343114 11.5391 0.106693 16.3562C0.108728 16.3798 0.121958 16.4023 0.140276 16.4167C2.3486 18.0384 4.48774 19.023 6.58716 19.6755C6.62076 19.6858 6.65636 19.6735 6.67774 19.6458C7.17436 18.9677 7.61705 18.2526 7.99662 17.5006C8.01902 17.4565 7.99764 17.4043 7.95185 17.3869C7.24967 17.1205 6.58105 16.7957 5.93789 16.4269C5.88702 16.3972 5.88295 16.3245 5.92975 16.2896C6.06509 16.1882 6.20047 16.0827 6.32971 15.9761C6.35309 15.9567 6.38567 15.9526 6.41316 15.9649C10.6385 17.894 15.2129 17.894 19.3883 15.9649C19.4158 15.9515 19.4484 15.9557 19.4728 15.9751C19.6021 16.0817 19.7374 16.1882 19.8738 16.2896C19.9206 16.3245 19.9175 16.3972 19.8667 16.4269C19.2235 16.8029 18.5549 17.1205 17.8517 17.3858C17.8059 17.4033 17.7855 17.4565 17.8079 17.5006C18.1956 18.2515 18.6383 18.9666 19.1258 19.6448C19.1461 19.6735 19.1828 19.6858 19.2164 19.6755C21.326 19.023 23.4651 18.0384 25.6734 16.4167C25.6928 16.4023 25.705 16.3808 25.707 16.3573C26.2453 10.7881 24.8053 5.95053 21.8897 1.66202C21.8826 1.64769 21.8704 1.63744 21.8562 1.63129L21.8562 1.63129ZM8.6276 13.4231C7.35549 13.4231 6.30731 12.2552 6.30731 10.8209C6.30731 9.38664 7.33516 8.21875 8.6276 8.21875C9.93018 8.21875 10.9682 9.39689 10.9479 10.8209C10.9479 12.2552 9.92 13.4231 8.6276 13.4231L8.6276 13.4231ZM17.2065 13.4231C15.9344 13.4231 14.8862 12.2552 14.8862 10.8209C14.8862 9.38664 15.914 8.21875 17.2065 8.21875C18.5091 8.21875 19.5471 9.39689 19.5268 10.8209C19.5268 12.2552 18.5091 13.4231 17.2065 13.4231L17.2065 13.4231Z" id="Shape" fill="#5865F2" fill-rule="evenodd" stroke="none" />
        </g>
      </g>
    </g>
  </g>
</svg>