<?xml version="1.0" encoding="utf-8"?>
<svg width="24px" height="20px" viewBox="0 0 24 20" version="1.1" xmlns:xlink="http://www.w3.org/1999/xlink" xmlns="http://www.w3.org/2000/svg">
  <defs>
    <path d="M0 0L24 0L24 20L0 20L0 0Z" id="path_1" />
    <clipPath id="mask_1">
      <use xlink:href="#path_1" />
    </clipPath>
  </defs>
  <g id="reddit-(1)">
    <path d="M0 0L24 0L24 20L0 20L0 0Z" id="Background" fill="none" fill-rule="evenodd" stroke="none" />
    <g clip-path="url(#mask_1)">
      <path d="M15.57 13.163C14.673 13.163 13.919 12.442 13.919 11.553C13.919 10.6645 14.673 9.9195 15.57 9.9195C16.467 9.9195 17.1945 10.6645 17.1945 11.553C17.1945 12.442 16.467 13.163 15.57 13.163M15.951 16.287C15.1155 17.1145 13.827 17.5165 12.012 17.5165L11.9995 17.5155L11.9865 17.5165C10.1715 17.5165 8.884 17.1145 8.04901 16.287C7.92596 16.1659 7.85669 16.0004 7.85669 15.8278C7.85669 15.6551 7.92596 15.4897 8.04901 15.3685C8.30603 15.115 8.71902 15.115 8.97601 15.3685C9.552 15.9395 10.5365 16.2175 11.9865 16.2175L11.9995 16.218L12.012 16.2175C13.462 16.2175 14.447 15.9395 15.024 15.3685C15.2809 15.1147 15.6941 15.1147 15.951 15.3685C16.2065 15.623 16.2065 16.0335 15.951 16.287M6.80551 11.553C6.80551 10.665 7.55801 9.91947 8.45401 9.91947C9.35101 9.91947 10.0785 10.665 10.0785 11.553C10.0785 12.442 9.35101 13.163 8.45401 13.163C7.5575 13.163 6.80551 12.442 6.80551 11.553M19.998 1.29898C20.6055 1.29898 21.0995 1.78897 21.0995 2.38999C21.0959 2.99524 20.6032 3.48343 19.998 3.48148C19.3928 3.4834 18.9001 2.99521 18.8965 2.38999C18.8965 1.78897 19.3905 1.29898 19.998 1.29898M24 9.78501C24 8.20902 22.7065 6.927 21.1155 6.927C20.4541 6.92615 19.8124 7.15262 19.298 7.56848C17.5395 6.47303 15.3075 5.81302 12.915 5.67353L14.163 1.76352L17.593 2.56351C17.683 3.80152 18.7265 4.78101 19.998 4.78101C21.328 4.78101 22.41 3.7085 22.41 2.39002C22.41 1.07251 21.3275 2.93004e-06 19.998 2.93004e-06C19.0998 -0.000821044 18.2751 0.49631 17.8565 1.29099L13.8715 0.360995C13.5389 0.282138 13.2015 0.472171 13.0965 0.797488L11.547 5.65048C8.96899 5.7125 6.54599 6.37497 4.65799 7.534C4.15079 7.14002 3.5267 6.92642 2.88449 6.927C1.29349 6.927 0 8.20902 0 9.78501C0 10.7595 0.494995 11.621 1.2485 12.1365C1.21701 12.3635 1.20102 12.5915 1.20102 12.8225C1.20102 14.7925 2.35651 16.6255 4.45502 17.9825C6.46652 19.2835 9.12903 20 11.9515 20C14.7735 20 17.436 19.2835 19.4475 17.9825C21.546 16.6255 22.702 14.7925 22.702 12.8225C22.702 12.6125 22.6875 12.4035 22.661 12.196C23.4655 11.6885 24 10.7975 24 9.78501" transform="translate(0 -1.9073486E-06)" id="Shape" fill="#FF5700" fill-rule="evenodd" stroke="none" />
    </g>
  </g>
</svg>