<?xml version="1.0" encoding="utf-8"?>
<svg width="26px" height="26px" viewBox="0 0 26 26" version="1.1" xmlns:xlink="http://www.w3.org/1999/xlink" xmlns="http://www.w3.org/2000/svg">
  <defs>
    <path d="M0 0L24 0L24 24L0 24L0 0Z" id="path_1" />
    <path d="M0 12C0 5.37258 5.37258 0 12 0C18.6274 0 24 5.37258 24 12C24 18.6274 18.6274 24 12 24C5.37258 24 0 18.6274 0 12L0 12Z" id="path_2" />
    <clipPath id="mask_1">
      <use xlink:href="#path_1" />
    </clipPath>
    <clipPath id="mask_2">
      <use xlink:href="#path_2" />
    </clipPath>
  </defs>
  <g id="Mask-group" transform="translate(1 1)">
    <path d="M0 0L24 0L24 24L0 24L0 0Z" id="artboard_1" fill="none" fill-rule="evenodd" stroke="none" />
    <g clip-path="url(#mask_1)">
      <g id="web-icons">
        <path d="M0 0L24 0L24 24L0 24L0 0Z" id="artboard_1" fill="#FFFFFF" fill-opacity="0" fill-rule="evenodd" stroke="none" />
        <g id="Ellipse">
          <path d="M0 12C0 5.37258 5.37258 0 12 0C18.6274 0 24 5.37258 24 12C24 18.6274 18.6274 24 12 24C5.37258 24 0 18.6274 0 12L0 12Z" id="path_1" fill="#000000" fill-rule="evenodd" stroke="none" />
          <g id="Mask-group">
            <path d="M0 12C0 5.37258 5.37258 0 12 0C18.6274 0 24 5.37258 24 12C24 18.6274 18.6274 24 12 24C5.37258 24 0 18.6274 0 12L0 12Z" id="path_1" fill="none" fill-rule="evenodd" stroke="none" />
            <g clip-path="url(#mask_2)">
              <g id="Group">
                <path d="M0 12C0 5.37258 5.37258 0 12 0C18.6274 0 24 5.37258 24 12C24 18.6274 18.6274 24 12 24C5.37258 24 0 18.6274 0 12L0 12Z" id="path_1" fill="none" fill-rule="evenodd" stroke="#4D4D4D" stroke-width="2" />
              </g>
            </g>
          </g>
        </g>
        <path d="M0 0.5C0 0.223858 0.223858 0 0.5 0C0.776142 0 1 0.223858 1 0.5C1 0.776142 0.776142 1 0.5 1C0.223858 1 0 0.776142 0 0.5L0 0.5Z" transform="translate(17.36 9.78)" id="Ellipse-3" fill="#FFFEFE" fill-rule="evenodd" stroke="none" />
        <path d="M0 0L5.19998 5.39997" transform="translate(6.8 10.5)" id="Line" fill="none" fill-rule="evenodd" stroke="#FFFFFF" stroke-width="1" stroke-linecap="square" />
        <path d="M0 5.18236L5.42155 0" transform="translate(12 10.70004)" id="Line-2" fill="none" fill-rule="evenodd" stroke="#FFFFFF" stroke-width="1" stroke-linecap="square" stroke-linejoin="round" />
        <path d="M0 0.5C0 0.223858 0.223858 0 0.5 0C0.776142 0 1 0.223858 1 0.5C1 0.776142 0.776142 1 0.5 1C0.223858 1 0 0.776142 0 0.5L0 0.5Z" transform="translate(5.88 9.56)" id="Ellipse-2" fill="#FFFFFF" fill-rule="evenodd" stroke="none" />
      </g>
    </g>
  </g>
</svg>