<?xml version="1.0" encoding="utf-8"?>
<svg width="20px" height="20px" viewBox="0 0 20 20" version="1.1" xmlns:xlink="http://www.w3.org/1999/xlink" xmlns="http://www.w3.org/2000/svg">
  <defs>
    <path d="M0 0L20 0L20 20L0 20L0 0Z" id="path_1" />
    <clipPath id="mask_1">
      <use xlink:href="#path_1" />
    </clipPath>
  </defs>
  <g id="icons8-osu-(1)">
    <path d="M0 0L20 0L20 20L0 20L0 0Z" id="Background" fill="none" fill-rule="evenodd" stroke="none" />
    <g clip-path="url(#mask_1)">
      <path d="M0 8.4375C0 3.7776 3.7776 0 8.4375 0C13.0974 0 16.875 3.7776 16.875 8.4375C16.875 13.0974 13.0974 16.875 8.4375 16.875C3.7776 16.875 0 13.0974 0 8.4375Z" transform="translate(1.5625 1.5625)" id="Circle" fill="#ED7899" fill-rule="evenodd" stroke="none" />
      <path d="M8.4375 16.875C3.785 16.875 0 13.09 0 8.4375C0 3.785 3.785 0 8.4375 0C13.09 0 16.875 3.785 16.875 8.4375C16.875 13.09 13.09 16.875 8.4375 16.875L8.4375 16.875ZM8.4375 1.5625C4.64656 1.5625 1.5625 4.64656 1.5625 8.4375C1.5625 12.2284 4.64656 15.3125 8.4375 15.3125C12.2284 15.3125 15.3125 12.2284 15.3125 8.4375C15.3125 4.64656 12.2284 1.5625 8.4375 1.5625L8.4375 1.5625Z" transform="translate(1.5625 1.5625)" id="Shape" fill="#F7A1C8" fill-rule="evenodd" stroke="none" />
      <path d="M8.75 17.5C3.92531 17.5 0 13.5747 0 8.75C0 3.92531 3.92531 0 8.75 0C13.5747 0 17.5 3.92531 17.5 8.75C17.5 13.5747 13.5747 17.5 8.75 17.5L8.75 17.5ZM8.75 0.625C4.26969 0.625 0.625 4.27 0.625 8.75C0.625 13.23 4.26969 16.875 8.75 16.875C13.2303 16.875 16.875 13.23 16.875 8.75C16.875 4.27 13.2303 0.625 8.75 0.625L8.75 0.625Z" transform="translate(1.25 1.25)" id="Shape" fill="#8D6C9F" fill-rule="evenodd" stroke="none" />
      <path d="M0.596458 1.18236C0.482708 1.18236 0.372708 1.11986 0.317395 1.01173L0.0339568 0.454544C-0.0441682 0.300794 0.0170815 0.112668 0.170832 0.0342309C0.323644 -0.0445187 0.512707 0.0173557 0.591145 0.171106L0.874895 0.727981C0.95302 0.881731 0.89177 1.06986 0.73802 1.14829C0.692707 1.17142 0.64427 1.18236 0.596458 1.18236L0.596458 1.18236Z" transform="translate(12.562605 15.229832)" id="Shape" fill="#8D6C9F" fill-rule="evenodd" stroke="none" />
      <path d="M0.458848 1.23289C0.317911 1.23289 0.190098 1.13664 0.155411 0.993517L0.00884771 0.386017C-0.0317776 0.218205 0.071348 0.0494552 0.23916 0.00882983C0.406972 -0.0317955 0.575723 0.0716424 0.616035 0.239454L0.762599 0.846954C0.803224 1.01477 0.700098 1.18352 0.532286 1.22414C0.507599 1.23008 0.483223 1.23289 0.458848 1.23289L0.458848 1.23289Z" transform="translate(11.17115 15.743671)" id="Shape" fill="#8D6C9F" fill-rule="evenodd" stroke="none" />
      <path d="M0.315942 1.25C0.144067 1.25 0.00437975 1.11125 0.00344217 0.939063L4.76837e-06 0.314063C-0.000932813 0.141563 0.13813 0.000938177 0.310943 0C0.311255 0 0.31188 0 0.312506 0C0.48438 0 0.624069 0.13875 0.625006 0.310937L0.628444 0.935937C0.629381 1.10844 0.490318 1.24906 0.317506 1.25C0.317193 1.25 0.316567 1.25 0.315942 1.25L0.315942 1.25Z" transform="translate(9.6974945 15.923124)" id="Shape" fill="#8D6C9F" fill-rule="evenodd" stroke="none" />
      <path d="M0.313043 1.23369C0.289918 1.23369 0.26648 1.23119 0.24273 1.22588C0.074293 1.18713 -0.0307071 1.01932 0.00804305 0.851191L0.148043 0.242128C0.186793 0.0740039 0.354918 -0.0300586 0.522418 0.00775337C0.690855 0.0465035 0.795855 0.214316 0.757105 0.382441L0.617105 0.991504C0.583981 1.13588 0.45523 1.23369 0.313043 1.23369L0.313043 1.23369Z" transform="translate(8.081957 15.76037)" id="Shape" fill="#8D6C9F" fill-rule="evenodd" stroke="none" />
      <path d="M0.312166 1.18526C0.265915 1.18526 0.218416 1.17495 0.174041 1.15276C0.019353 1.0762 -0.0440842 0.888698 0.0324786 0.73401L0.309979 0.17401C0.386541 0.019635 0.573416 -0.0444281 0.728729 0.0327599C0.883417 0.109322 0.946854 0.296823 0.870291 0.45151L0.592791 1.01151C0.538103 1.12151 0.427166 1.18526 0.312166 1.18526L0.312166 1.18526Z" transform="translate(6.5475216 15.261303)" id="Shape" fill="#8D6C9F" fill-rule="evenodd" stroke="none" />
      <path d="M0.909822 0.932144C0.856698 0.932144 0.802947 0.918706 0.753884 0.890269C0.568259 0.783081 0.376697 0.684331 0.183572 0.597144C0.0263846 0.525894 -0.043304 0.340894 0.0279462 0.183706C0.0995088 0.0265187 0.282947 -0.0434813 0.441697 0.0280812C0.653259 0.124019 0.863571 0.231831 1.06638 0.349331C1.21607 0.435581 1.26732 0.626831 1.18076 0.776206C1.12295 0.876206 1.01795 0.932144 0.909822 0.932144L0.909822 0.932144Z" transform="translate(12.52549 3.4241066)" id="Shape" fill="#8D6C9F" fill-rule="evenodd" stroke="none" />
      <path d="M0.312834 1.53394C0.204709 1.53394 0.0993967 1.47769 0.0415844 1.37738C-0.044353 1.22769 0.00720918 1.03675 0.156584 0.950503C1.7219 0.0492537 3.63846 -0.225434 5.38971 0.188004C5.55752 0.227379 5.66158 0.395816 5.62221 0.563941C5.58252 0.732066 5.41377 0.836129 5.24627 0.796441C3.64909 0.420504 1.89721 0.669879 0.46846 1.49238C0.419397 1.5205 0.365647 1.53394 0.312834 1.53394L0.312834 1.53394Z" transform="translate(6.2634163 2.8154335)" id="Shape" fill="#8D6C9F" fill-rule="evenodd" stroke="none" />
      <path d="M3.00017 1.74265C2.99642 2.0464 2.95361 2.35921 2.81486 2.6489C2.60299 3.0914 2.25517 3.33796 1.79361 3.4114C1.51517 3.45578 1.23767 3.44671 0.967673 3.35609C0.525799 3.20765 0.249236 2.88421 0.102673 2.42984C0.00736088 2.13453 -0.0148267 1.82984 0.00861108 1.52078C0.0317362 1.21796 0.102049 0.929526 0.255486 0.669527C0.476424 0.295151 0.802049 0.086714 1.21267 0.0242138C1.49392 -0.0185984 1.77455 -0.00922382 2.0458 0.0895262C2.51299 0.259526 2.7958 0.610151 2.92392 1.10578C2.97674 1.30859 2.9983 1.51609 3.00017 1.74265L3.00017 1.74265ZM2.1333 1.70171C2.13111 1.65421 2.12955 1.58109 2.12361 1.50828C2.10955 1.33546 2.07986 1.16671 2.00517 1.00984C1.92955 0.851714 1.81049 0.751089 1.64455 0.720777C1.57267 0.707652 1.49736 0.703589 1.42455 0.709214C1.23674 0.723902 1.08892 0.813901 1.00392 0.994839C0.96486 1.07796 0.93361 1.16703 0.912985 1.25703C0.856423 1.50421 0.857673 1.75578 0.88111 2.00734C0.895173 2.15921 0.92736 2.30703 0.993298 2.44484C1.05549 2.57453 1.14674 2.67109 1.27955 2.7164C1.42799 2.76703 1.5783 2.76609 1.72611 2.71265C1.89767 2.65078 1.99017 2.5114 2.0483 2.34078C2.11611 2.14203 2.13017 1.93546 2.1333 1.70171L2.1333 1.70171Z" transform="translate(4.0623283 8.43766)" id="Shape" fill="#FFF8EE" fill-rule="evenodd" stroke="none" />
      <path d="M2.1437 0.625C2.32183 0.625 2.49839 0.651562 2.67089 0.714375C3.13808 0.884375 3.42089 1.235 3.54902 1.73063C3.60152 1.93375 3.62308 2.14094 3.62495 2.3675C3.6212 2.67125 3.57839 2.98406 3.43964 3.27375C3.22777 3.71625 2.87995 3.96281 2.41839 4.03625C2.3137 4.05344 2.20839 4.0625 2.10402 4.0625C1.93183 4.0625 1.76089 4.03781 1.59308 3.98125C1.1512 3.83281 0.874642 3.50938 0.72808 3.055C0.632767 2.75969 0.61058 2.455 0.634017 2.14594C0.657142 1.84313 0.727455 1.55469 0.880892 1.29469C1.10183 0.920313 1.42745 0.711876 1.83808 0.649375C1.94027 0.63375 2.04245 0.625 2.1437 0.625M2.12339 3.37844C2.19964 3.37844 2.27589 3.365 2.35152 3.3375C2.52308 3.27562 2.61558 3.13625 2.6737 2.96563C2.74152 2.7675 2.75527 2.56063 2.75839 2.32688C2.7562 2.27938 2.75464 2.20625 2.7487 2.13344C2.73464 1.96063 2.70495 1.79188 2.63027 1.635C2.55464 1.47688 2.43558 1.37625 2.26964 1.34594C2.21902 1.33656 2.16683 1.33188 2.11495 1.33188C2.09308 1.33188 2.0712 1.33281 2.04964 1.33438C1.86183 1.34906 1.71402 1.43906 1.62902 1.62C1.58995 1.70313 1.5587 1.79219 1.53808 1.88219C1.48152 2.12938 1.48277 2.38094 1.5062 2.6325C1.52027 2.78438 1.55245 2.93219 1.61839 3.07C1.68058 3.19969 1.77183 3.29625 1.90464 3.34156C1.97745 3.36594 2.05058 3.37844 2.12339 3.37844M2.1437 0C2.01495 0 1.88058 0.0106251 1.74433 0.0312501C1.13808 0.123438 0.653391 0.450312 0.342453 0.976875C0.151829 1.29969 0.043391 1.66656 0.0105783 2.09844C-0.0212967 2.5175 0.0187033 2.89313 0.132766 3.24687C0.346516 3.90969 0.782766 4.36875 1.3937 4.57375C1.6187 4.64937 1.85745 4.6875 2.10402 4.6875C2.23808 4.6875 2.37683 4.67625 2.51714 4.65375C3.19339 4.54594 3.70745 4.16219 4.0037 3.54375C4.16402 3.20875 4.24495 2.82656 4.25027 2.37531C4.24808 2.0725 4.21683 1.81469 4.15464 1.57406C3.97058 0.862812 3.53152 0.362187 2.88495 0.126874C2.65308 0.0428122 2.4037 0 2.1437 0L2.1437 0L2.1437 0Z" transform="translate(3.4372349 7.8125)" id="Shape" fill="#8D6C9F" fill-rule="evenodd" stroke="none" />
      <path d="M1.81552 0.0389063C2.08989 -0.0132811 2.36083 -0.0123435 2.63646 0.038594C2.63646 0.0554693 2.63646 0.0714064 2.63646 0.087344C2.63646 1.12016 2.63614 2.15297 2.63739 3.18547C2.63739 3.22203 2.62708 3.23578 2.59645 3.24641C2.16864 3.39078 1.73239 3.46266 1.28427 3.42953C1.09114 3.41516 0.898329 3.39609 0.714266 3.32172C0.366454 3.1814 0.170203 2.89422 0.072391 2.51328C0.0148916 2.28922 0.00114083 2.05859 0.000516176 1.82703C-0.000420809 1.24484 0.000203848 0.662344 0.000203848 0.0801563C0.000203848 0.0670314 0.00145435 0.0539064 0.00207901 0.038594C0.277392 -0.0129688 0.550829 -0.0129688 0.828017 0.0392193C0.828017 0.0604695 0.828017 0.0795317 0.828017 0.0985944C0.828329 0.701719 0.826454 1.30484 0.831141 1.90766C0.832078 2.02922 0.850516 2.15297 0.876766 2.27109C0.929578 2.51016 1.07552 2.64359 1.29614 2.67516C1.45458 2.69797 1.61239 2.68859 1.76958 2.65516C1.8052 2.64766 1.81645 2.63328 1.81645 2.59172C1.8152 1.76047 1.81552 0.92922 1.81552 0.0979698C1.81552 0.0789064 1.81552 0.0598437 1.81552 0.0389063L1.81552 0.0389063Z" transform="translate(10.800106 8.437656)" id="Shape" fill="#FFF8EE" fill-rule="evenodd" stroke="none" />
      <path d="M1.03864 0.625C1.17614 0.625 1.31427 0.638125 1.45302 0.664063C1.45302 0.685313 1.45302 0.704375 1.45302 0.723438C1.45333 1.32656 1.45145 1.92969 1.45614 2.5325C1.45708 2.65406 1.47552 2.77781 1.50177 2.89594C1.55458 3.135 1.70052 3.26844 1.92114 3.3C1.97989 3.30844 2.03895 3.3125 2.0977 3.3125C2.19708 3.3125 2.29583 3.30094 2.39458 3.28C2.4302 3.2725 2.44145 3.25812 2.44145 3.21656C2.4402 2.38531 2.44052 1.55406 2.44052 0.722812C2.44052 0.70375 2.44052 0.684687 2.44052 0.66375C2.57708 0.637813 2.71302 0.625 2.84895 0.625C2.98583 0.625 3.12302 0.638125 3.26145 0.66375C3.26145 0.680625 3.26145 0.696563 3.26145 0.7125C3.26145 1.74531 3.26114 2.77812 3.26239 3.81063C3.26239 3.84719 3.25208 3.86094 3.22145 3.87156C2.86271 3.9925 2.49833 4.0625 2.12614 4.0625C2.05427 4.0625 1.98208 4.06 1.90958 4.05437C1.71645 4.04 1.52364 4.02094 1.33958 3.94656C0.991767 3.80625 0.795516 3.51906 0.697704 3.13812C0.640204 2.91406 0.626454 2.68344 0.625829 2.45188C0.624892 1.86969 0.625517 1.28719 0.625517 0.705C0.625517 0.691875 0.626767 0.67875 0.627392 0.663438C0.76458 0.637813 0.901455 0.625 1.03864 0.625M1.03864 0C0.864269 0 0.687081 0.0165623 0.512393 0.0490624C0.227081 0.1025 0.0161421 0.345 0.00270486 0.635C0.00114203 0.664375 0.00020504 0.684688 0.00020504 0.705L0.00020504 1.14875C-0.000107288 1.58344 -0.000107288 2.01844 0.000517368 2.45312C0.000829697 2.68031 0.0117672 2.98156 0.0920796 3.29406C0.287392 4.05344 0.75083 4.38344 1.10552 4.52625C1.3727 4.63406 1.62645 4.66031 1.86333 4.67781C1.95114 4.68438 2.03864 4.6875 2.12614 4.6875C2.54521 4.6875 2.98114 4.61219 3.42114 4.46375C3.70896 4.36656 3.88771 4.11625 3.88739 3.81C3.88646 2.92313 3.88646 2.03625 3.88646 1.14969L3.88646 0.7125L3.88646 0.66375C3.88646 0.3625 3.67177 0.104063 3.37552 0.0493753C3.19958 0.0165623 3.02239 0 2.84896 0C2.67427 0 2.49739 0.0168753 2.32333 0.05C2.16927 0.0793749 2.03708 0.164062 1.94646 0.280938C1.85552 0.16375 1.72302 0.0790626 1.56802 0.05C1.39239 0.0168753 1.21427 0 1.03864 0L1.03864 0L1.03864 0Z" transform="translate(10.175106 7.8125)" id="Shape" fill="#8D6C9F" fill-rule="evenodd" stroke="none" />
      <path d="M2.04271 0.820502C1.90646 0.779564 1.77615 0.73269 1.64271 0.701752C1.4749 0.66269 1.30396 0.653002 1.1349 0.697065C1.04615 0.72019 0.966146 0.760502 0.932084 0.86019C0.886771 0.992065 0.930522 1.12519 1.05302 1.17988C1.18646 1.23925 1.32708 1.28175 1.46458 1.33144C1.58521 1.37519 1.70833 1.41175 1.82552 1.46425C2.13646 1.60363 2.29083 1.86113 2.31365 2.21238C2.33271 2.50769 2.26583 2.77331 2.07396 2.99613C1.90802 3.18894 1.69646 3.3005 1.4624 3.36957C1.2074 3.44488 0.94677 3.44644 0.685208 3.42738C0.459583 3.41082 0.24177 3.35394 0.029583 3.27269C0.00614524 3.26363 -0.0022918 3.25269 0.000520349 3.2255C0.0230205 3.00832 0.0780201 2.8005 0.162083 2.60113C0.164896 2.59457 0.168333 2.58832 0.173646 2.57707C0.18927 2.583 0.204583 2.588 0.219583 2.59425C0.462083 2.69081 0.710833 2.75113 0.97177 2.73832C1.09177 2.73238 1.20927 2.713 1.31677 2.65113C1.46083 2.56832 1.51458 2.44581 1.47677 2.29019C1.4624 2.2305 1.43427 2.17863 1.38208 2.15207C1.29615 2.10863 1.20865 2.06675 1.11865 2.03488C0.955833 1.97738 0.788958 1.93144 0.626457 1.87363C0.506145 1.83082 0.398645 1.7605 0.30052 1.67394C0.163645 1.553 0.0989574 1.39332 0.0764579 1.21207C0.0508326 1.00707 0.0611454 0.804878 0.141146 0.612691C0.248333 0.355191 0.44302 0.198628 0.685521 0.101128C0.897709 0.0158155 1.11958 -0.00355899 1.3449 0.000503063C1.63208 0.00581563 1.90927 0.0661278 2.18021 0.164253C2.19802 0.170816 2.21646 0.173628 2.21271 0.204253C2.18865 0.416753 2.13708 0.620816 2.0474 0.813316C2.04521 0.817377 2.0424 0.820814 2.04271 0.820502L2.04271 0.820502Z" transform="translate(7.746353 8.437309)" id="Shape" fill="#FFF8EE" fill-rule="evenodd" stroke="none" />
      <path d="M1.91528 0.625C1.93341 0.625 1.95185 0.625312 1.96997 0.625625C2.25716 0.630938 2.53435 0.69125 2.80528 0.789375C2.8231 0.795938 2.84153 0.798751 2.83778 0.829375C2.81372 1.04188 2.76216 1.24594 2.67247 1.43844C2.6706 1.44219 2.6681 1.44563 2.6681 1.44563C2.6681 1.44563 2.6681 1.44563 2.6681 1.44563C2.53185 1.40469 2.40153 1.35781 2.2681 1.32688C2.17685 1.30563 2.08466 1.29313 1.99247 1.29313C1.91497 1.29313 1.83747 1.30188 1.76028 1.32219C1.67153 1.34531 1.59153 1.38563 1.55747 1.48531C1.51216 1.61719 1.55591 1.75031 1.67841 1.805C1.81185 1.86438 1.95247 1.90688 2.08997 1.95656C2.2106 2.00031 2.33372 2.03688 2.45091 2.08938C2.76185 2.22875 2.91622 2.48625 2.93903 2.8375C2.9581 3.13281 2.89122 3.39844 2.69935 3.62125C2.53341 3.81406 2.32185 3.92563 2.08778 3.99469C1.9156 4.04531 1.74122 4.0625 1.56591 4.0625C1.48091 4.0625 1.3956 4.05844 1.31028 4.05219C1.08466 4.03562 0.866847 3.97875 0.654659 3.8975C0.631222 3.88844 0.622784 3.8775 0.625597 3.85C0.648097 3.63281 0.703096 3.425 0.787159 3.22562C0.789972 3.21906 0.793409 3.21281 0.798722 3.20156C0.814347 3.2075 0.82966 3.2125 0.844659 3.21875C1.06528 3.30656 1.29153 3.36469 1.52716 3.36469C1.55028 3.36469 1.57341 3.36406 1.59685 3.36312C1.71685 3.35719 1.83435 3.33781 1.94185 3.27594C2.08591 3.19312 2.13966 3.07062 2.10185 2.915C2.08747 2.85531 2.05935 2.80344 2.00716 2.77687C1.92122 2.73344 1.83372 2.69156 1.74372 2.65969C1.58091 2.60219 1.41403 2.55625 1.25153 2.49844C1.13122 2.45562 1.02372 2.38531 0.925596 2.29875C0.788721 2.17781 0.724034 2.01812 0.701534 1.83687C0.675908 1.63187 0.686221 1.42969 0.766221 1.2375C0.873409 0.98 1.0681 0.823437 1.3106 0.725937C1.50591 0.647812 1.70903 0.625 1.91528 0.625M1.91528 0C1.59247 0 1.32622 0.0465626 1.0781 0.145937C0.652784 0.316562 0.353721 0.603124 0.189658 0.997187C0.0746584 1.27344 0.0393456 1.57312 0.0815332 1.91406C0.120596 2.22844 0.239971 2.49062 0.436845 2.69531C0.353408 2.75344 0.283721 2.83219 0.236846 2.92812C0.224971 2.95187 0.217783 2.96719 0.21122 2.98281C0.101845 3.24219 0.0318456 3.5125 0.00372052 3.78594C-0.0278419 4.09156 0.143721 4.37062 0.430595 4.48094C0.719345 4.59187 0.992158 4.65562 1.26435 4.67562C1.37435 4.68344 1.47278 4.6875 1.56591 4.6875C1.82247 4.6875 2.05122 4.65688 2.26435 4.59375C2.64435 4.48156 2.94153 4.29688 3.17216 4.02875C3.46216 3.69219 3.59341 3.27781 3.56216 2.79656C3.53685 2.40625 3.39716 2.07656 3.15841 1.83094C3.18997 1.79188 3.21716 1.74844 3.23903 1.70156C3.35185 1.45906 3.4256 1.18938 3.45872 0.899376C3.49466 0.584376 3.31528 0.302813 3.01278 0.199063C2.66185 0.071876 2.32278 0.00625074 1.98122 1.19209e-06L1.91528 0L1.91528 0L1.91528 0Z" transform="translate(7.120655 7.8125)" id="Shape" fill="#8D6C9F" fill-rule="evenodd" stroke="none" />
      <path d="M0 0L0.75 0L0.75 2.85312L0 2.85312L0 0Z" transform="translate(14.5625 7.5)" id="Rectangle" fill="#FFF8EE" fill-rule="evenodd" stroke="none" />
      <path d="M1.375 0.625L1.375 3.47813L0.625 3.47813L0.625 0.625L1.375 0.625M1.375 0L0.625 0C0.279688 0 0 0.279688 0 0.625L0 3.47813C0 3.82344 0.279688 4.10313 0.625 4.10313L1.375 4.10313C1.72031 4.10313 2 3.82344 2 3.47813L2 0.625C2 0.279688 1.72031 0 1.375 0L1.375 0L1.375 0Z" transform="translate(13.9375 6.875)" id="Shape" fill="#8D6C9F" fill-rule="evenodd" stroke="none" />
      <path d="M0 0L0.75 0L0.75 0.75L0 0.75L0 0Z" transform="translate(14.5625 11.103125)" id="Rectangle" fill="#FFF8EE" fill-rule="evenodd" stroke="none" />
      <path d="M1.375 0.625L1.375 1.375L0.625 1.375L0.625 0.625L1.375 0.625M1.375 0L0.625 0C0.279688 0 0 0.279688 0 0.625L0 1.375C0 1.72031 0.279688 2 0.625 2L1.375 2C1.72031 2 2 1.72031 2 1.375L2 0.625C2 0.28 1.72031 0 1.375 0L1.375 0L1.375 0Z" transform="translate(13.9375 10.478125)" id="Shape" fill="#8D6C9F" fill-rule="evenodd" stroke="none" />
    </g>
  </g>
</svg>