<svg fill="#000000" xmlns="http://www.w3.org/2000/svg"  viewBox="0 0 64 64" width="20px" height="20px"><circle cx="32" cy="32" r="27" fill="none" stroke="#000000" stroke-miterlimit="10" stroke-width="2"/><line x1="42.108" x2="41.201" y1="51.518" y2="49.736" fill="none" stroke="#000000" stroke-linecap="round" stroke-miterlimit="10" stroke-width="2"/><line x1="37.217" x2="36.748" y1="53.325" y2="51.381" fill="none" stroke="#000000" stroke-linecap="round" stroke-miterlimit="10" stroke-width="2"/><line x1="32.043" x2="32.033" y1="53.954" y2="51.954" fill="none" stroke="#000000" stroke-linecap="round" stroke-miterlimit="10" stroke-width="2"/><line x1="26.863" x2="27.311" y1="53.381" y2="51.432" fill="none" stroke="#000000" stroke-linecap="round" stroke-miterlimit="10" stroke-width="2"/><line x1="21.953" x2="22.84" y1="51.629" y2="49.837" fill="none" stroke="#000000" stroke-linecap="round" stroke-miterlimit="10" stroke-width="2"/><path fill="none" stroke="#000000" stroke-linecap="round" stroke-miterlimit="10" stroke-width="2" d="M41.082,11.956 c0.655,0.297,1.293,0.626,1.912,0.983"/><path fill="none" stroke="#000000" stroke-linecap="round" stroke-miterlimit="10" stroke-width="2" d="M21.043,12.919 C24.269,11.062,28.01,10,32,10c1.742,0,3.436,0.202,5.061,0.585"/><path d="M17.909,27c0.57,0,1.135,0.085,1.687,0.286c1.495,0.544,2.4,1.666,2.81,3.252c0.168,0.65,0.237,1.313,0.243,2.038 c-0.012,0.972-0.149,1.973-0.593,2.9c-0.678,1.416-1.791,2.205-3.268,2.44C18.453,37.971,18.116,38,17.782,38 c-0.551,0-1.098-0.079-1.635-0.26c-1.414-0.475-2.299-1.51-2.768-2.964c-0.305-0.945-0.376-1.92-0.301-2.909 c0.074-0.969,0.299-1.892,0.79-2.724c0.707-1.198,1.749-1.865,3.063-2.065C17.258,27.028,17.585,27,17.909,27 M17.844,35.811 c0.244,0,0.488-0.043,0.73-0.131c0.549-0.198,0.845-0.644,1.031-1.19c0.217-0.634,0.261-1.296,0.271-2.044 c-0.007-0.152-0.012-0.386-0.031-0.619c-0.045-0.553-0.14-1.093-0.379-1.595c-0.242-0.506-0.623-0.828-1.154-0.925 c-0.162-0.03-0.329-0.045-0.495-0.045c-0.07,0-0.14,0.003-0.209,0.008c-0.601,0.047-1.074,0.335-1.346,0.914 c-0.125,0.266-0.225,0.551-0.291,0.839c-0.181,0.791-0.177,1.596-0.102,2.401c0.045,0.486,0.148,0.959,0.359,1.4 c0.199,0.415,0.491,0.724,0.916,0.869C17.377,35.771,17.611,35.811,17.844,35.811 M17.909,25c-0.412,0-0.842,0.034-1.278,0.1 c-1.94,0.295-3.491,1.341-4.486,3.026c-0.61,1.033-0.957,2.207-1.062,3.589c-0.102,1.341,0.026,2.543,0.391,3.675 c0.684,2.121,2.08,3.59,4.035,4.246C16.229,39.878,16.993,40,17.782,40c0.429,0,0.873-0.036,1.322-0.108 c2.164-0.345,3.809-1.573,4.757-3.552c0.513-1.072,0.772-2.295,0.789-3.739c-0.007-0.969-0.107-1.794-0.306-2.564 c-0.589-2.276-1.994-3.878-4.063-4.631C19.539,25.137,18.741,25,17.909,25L17.909,25z M17.849,33.101 c-0.036-0.451-0.037-0.835-0.002-1.174c0.002,0.02,0.003,0.04,0.005,0.06c0.011,0.137,0.016,0.274,0.02,0.386l0.004,0.098 C17.872,32.699,17.864,32.909,17.849,33.101L17.849,33.101z"/><path d="M35.884,27c0.44,0,0.882,0.042,1.326,0.125c0,0.068,0,0.129,0,0.19c0.001,1.93-0.005,3.86,0.01,5.789 c0.003,0.389,0.062,0.785,0.146,1.163c0.169,0.765,0.636,1.192,1.342,1.293c0.188,0.027,0.377,0.04,0.565,0.04 c0.318,0,0.634-0.037,0.95-0.104c0.114-0.024,0.15-0.07,0.15-0.203c-0.004-2.66-0.003-5.32-0.003-7.98c0-0.061,0-0.122,0-0.189 C40.807,27.041,41.242,27,41.677,27c0.438,0,0.877,0.042,1.32,0.124c0,0.054,0,0.105,0,0.156c0,3.305-0.001,6.61,0.003,9.914 c0,0.117-0.033,0.161-0.131,0.195C41.721,37.776,40.555,38,39.364,38c-0.23,0-0.461-0.008-0.693-0.026 c-0.618-0.046-1.235-0.107-1.824-0.345c-1.113-0.449-1.741-1.368-2.054-2.587c-0.184-0.717-0.228-1.455-0.23-2.196 c-0.003-1.863-0.001-3.727-0.001-5.59c0-0.042,0.004-0.084,0.006-0.133C35.007,27.041,35.445,27,35.884,27 M35.884,25 c-0.558,0-1.125,0.053-1.684,0.157c-0.912,0.171-1.588,0.946-1.63,1.874c-0.005,0.095-0.008,0.16-0.008,0.225l0,1.43 c0,1.388-0.001,2.776,0.001,4.164c0.001,0.727,0.035,1.69,0.293,2.691c0.625,2.43,2.108,3.486,3.243,3.943 c0.855,0.345,1.667,0.429,2.425,0.485C38.804,39.99,39.084,40,39.364,40c1.341,0,2.736-0.241,4.144-0.716 c0.921-0.311,1.493-1.112,1.492-2.092c-0.003-2.848-0.003-5.695-0.003-8.543l0-1.37v-0.156c0-0.964-0.688-1.791-1.635-1.966 C42.799,25.053,42.232,25,41.677,25c-0.559,0-1.125,0.054-1.682,0.16c-0.493,0.094-0.916,0.365-1.206,0.739 c-0.291-0.375-0.715-0.646-1.211-0.739C37.016,25.054,36.446,25,35.884,25L35.884,25z"/><path d="M28.915,27c0.058,0,0.117,0.001,0.175,0.002c0.919,0.017,1.806,0.21,2.673,0.524c0.057,0.021,0.116,0.03,0.104,0.128 c-0.077,0.68-0.242,1.333-0.529,1.949c-0.006,0.012-0.014,0.023-0.014,0.023c0,0,0,0,0,0c-0.436-0.131-0.853-0.281-1.28-0.38 c-0.292-0.068-0.587-0.108-0.882-0.108c-0.248,0-0.496,0.028-0.743,0.093c-0.284,0.074-0.54,0.203-0.649,0.522 c-0.145,0.422-0.005,0.848,0.387,1.023c0.427,0.19,0.877,0.326,1.317,0.485c0.386,0.14,0.78,0.257,1.155,0.425 c0.995,0.446,1.489,1.27,1.562,2.394c0.061,0.945-0.153,1.795-0.767,2.508c-0.531,0.617-1.208,0.974-1.957,1.195 C28.916,37.945,28.358,38,27.797,38c-0.272,0-0.545-0.013-0.818-0.033c-0.722-0.053-1.419-0.235-2.098-0.495 c-0.075-0.029-0.102-0.064-0.093-0.152c0.072-0.695,0.248-1.36,0.517-1.998c0.009-0.021,0.02-0.041,0.037-0.077 c0.05,0.019,0.099,0.035,0.147,0.055c0.706,0.281,1.43,0.467,2.184,0.467c0.074,0,0.148-0.002,0.223-0.005 c0.384-0.019,0.76-0.081,1.104-0.279c0.461-0.265,0.633-0.657,0.512-1.155c-0.046-0.191-0.136-0.357-0.303-0.442 c-0.275-0.139-0.555-0.273-0.843-0.375c-0.521-0.184-1.055-0.331-1.575-0.516c-0.385-0.137-0.729-0.362-1.043-0.639 c-0.438-0.387-0.645-0.898-0.717-1.478c-0.082-0.656-0.049-1.303,0.207-1.918c0.343-0.824,0.966-1.325,1.742-1.637 C27.605,27.073,28.255,27,28.915,27 M28.915,25c-1.033,0-1.885,0.149-2.679,0.467c-1.361,0.546-2.318,1.463-2.843,2.724 c-0.368,0.884-0.481,1.844-0.346,2.934c0.125,1.006,0.507,1.845,1.137,2.499c-0.267,0.186-0.49,0.437-0.64,0.745 c-0.038,0.076-0.061,0.125-0.082,0.175c-0.35,0.83-0.574,1.695-0.664,2.57c-0.101,0.978,0.448,1.871,1.366,2.224 c0.924,0.355,1.797,0.559,2.668,0.623C27.184,39.987,27.499,40,27.797,40c0.821,0,1.553-0.098,2.235-0.3 c1.216-0.359,2.167-0.95,2.905-1.808c0.928-1.077,1.348-2.403,1.248-3.943c-0.081-1.249-0.528-2.304-1.292-3.09 c0.101-0.125,0.188-0.264,0.258-0.414c0.361-0.775,0.597-1.639,0.703-2.566c0.115-1.008-0.459-1.909-1.427-2.241 c-1.123-0.407-2.208-0.617-3.301-0.637L28.915,25L28.915,25z"/><path d="M49,24v9.13h-2.4V24H49 M49,22h-2.4c-1.105,0-2,0.895-2,2v9.13c0,1.105,0.895,2,2,2H49c1.105,0,2-0.895,2-2V24 C51,22.895,50.105,22,49,22L49,22z"/><path d="M49,35.53v2.4h-2.4v-2.4H49 M49,33.53h-2.4c-1.105,0-2,0.895-2,2v2.4c0,1.105,0.895,2,2,2H49c1.105,0,2-0.895,2-2v-2.4 C51,34.426,50.105,33.53,49,33.53L49,33.53z"/></svg>