<?xml version="1.0" encoding="utf-8"?>
<svg width="20px" height="20px" viewBox="0 0 20 20" version="1.1" xmlns:xlink="http://www.w3.org/1999/xlink" xmlns="http://www.w3.org/2000/svg">
  <defs>
    <path d="M0 0L20 0L20 20L0 20L0 0Z" id="path_1" />
    <clipPath id="mask_1">
      <use xlink:href="#path_1" />
    </clipPath>
  </defs>
  <g id="twitter-(1)">
    <path d="M0 0L20 0L20 20L0 20L0 0Z" id="Background" fill="none" fill-rule="evenodd" stroke="none" />
    <g clip-path="url(#mask_1)">
      <path d="M20 1.92373C19.2477 2.25186 18.452 2.46993 17.6375 2.57123C18.4958 2.06202 19.1376 1.25569 19.4412 0.304982C18.6375 0.781653 17.7582 1.11733 16.8412 1.29748C15.6908 0.0691292 13.9066 -0.331441 12.3415 0.287264C10.7764 0.905969 9.74831 2.41827 9.74875 4.10123C9.74875 4.42623 9.77625 4.73873 9.84375 5.03623C6.5447 4.87449 3.47089 3.31462 1.3925 0.747483C0.299764 2.62032 0.851514 5.01999 2.6525 6.22748C2.00345 6.21008 1.36809 6.03688 0.799998 5.72248L0.8 5.76748C0.802234 7.71905 2.1738 9.40117 4.08499 9.79623C3.73422 9.88867 3.37273 9.93407 3.01 9.93123C2.74949 9.93586 2.48923 9.91239 2.23375 9.86123C2.77666 11.5289 4.31173 12.6733 6.065 12.7175C4.61367 13.8525 2.82372 14.4683 0.98125 14.4662C0.645 14.4662 0.3225 14.4512 0 14.41C1.87485 15.6182 4.05959 16.2573 6.29 16.25C13.835 16.25 17.96 9.99998 17.96 4.58248C17.96 4.40123 17.9537 4.22623 17.945 4.05248C18.7537 3.47372 19.4501 2.75233 20 1.92373L20 1.92373Z" transform="translate(4.7683716E-07 2.5000181)" id="Shape" fill="#03A9F4" fill-rule="evenodd" stroke="none" />
    </g>
  </g>
</svg>