<?xml version="1.0" encoding="utf-8"?>
<svg width="20px" height="20px" viewBox="0 0 20 20" version="1.1" xmlns:xlink="http://www.w3.org/1999/xlink" xmlns="http://www.w3.org/2000/svg">
  <defs>
    <path d="M0 0L20 0L20 20L0 20L0 0Z" id="path_1" />
    <clipPath id="mask_1">
      <use xlink:href="#path_1" />
    </clipPath>
  </defs>
  <g id="icons8-youtube-play-button">
    <path d="M0 0L20 0L20 20L0 20L0 0Z" id="Background" fill="none" fill-rule="evenodd" stroke="none" />
    <g clip-path="url(#mask_1)">
      <path d="M0.11534 7.85299C-0.0959103 6.43549 -0.00424365 5.15049 0.28659 3.74716C0.38284 3.28257 0.509923 2.81924 0.734506 2.40049C1.46826 1.03382 3.10326 0.390905 4.65117 0.217156C6.19909 0.0438221 7.68576 0.125072 9.24076 0.0350722C11.5366 -0.0978446 13.5478 0.155489 15.6916 0.651739C16.0228 0.728405 16.3608 0.807989 16.6487 0.987989C17.312 1.40299 17.5537 2.23882 17.6841 3.00757C18.0774 5.32424 17.9391 7.6984 17.6699 10.0326C17.5995 10.6417 17.5049 11.2859 17.1095 11.7563C16.7562 12.1763 16.2153 12.3905 15.6837 12.5342C14.2824 12.913 12.8095 12.9109 11.357 12.9063C9.59617 12.9005 7.83492 12.8951 6.07409 12.8892C4.35992 12.8838 2.49367 12.8259 1.17534 11.7367C0.891589 11.5026 0.638672 11.2188 0.502422 10.878C0.403256 10.6305 0.369506 10.363 0.336172 10.0988C0.228673 9.24299 0.242423 8.70632 0.11534 7.85299L0.11534 7.85299Z" transform="translate(1.0392437 3.5420113)" id="Shape" fill="#EF4823" fill-rule="evenodd" stroke="none" />
      <path d="M18.3417 5.90904C18.3237 4.93779 18.2471 3.95904 18.0667 3.00321C17.9333 2.29696 17.6858 1.54071 17.0854 1.09404C16.7404 0.837376 16.32 0.735293 15.9079 0.64071C15.4425 0.533626 14.975 0.436126 14.505 0.35196C13.5925 0.18821 12.6704 0.0727932 11.7446 0.0223764C10.7571 -0.0313737 9.77999 0.0244598 8.79374 0.0569598C7.79999 0.0894598 6.80499 0.075293 5.81207 0.131127C4.25499 0.219043 2.58666 0.50821 1.41916 1.63571C0.80999 2.22404 0.491657 2.98279 0.31374 3.79946C0.108323 4.74029 -0.01376 5.70738 0.00123998 6.67113C0.00873993 7.15321 0.0541567 7.63196 0.122907 8.10904C0.251657 8.99779 0.22624 9.91363 0.41124 10.794C0.582073 11.607 1.23916 12.1849 1.94541 12.5615C3.43541 13.3565 5.21416 13.2945 6.85291 13.2999C8.90166 13.3065 10.9571 13.359 13.0054 13.3053C13.9933 13.2795 14.9912 13.1957 15.9483 12.9357C16.7317 12.7228 17.4587 12.347 17.7933 11.567C17.9525 11.1961 18.0171 10.7978 18.0671 10.3999C18.1287 9.91113 18.1779 9.41988 18.2208 8.92904C18.3092 7.92529 18.3604 6.91696 18.3417 5.90904L18.3417 5.90904ZM17.67 10.2332C17.5721 11.0736 17.3804 11.8595 16.5671 12.2699C15.7942 12.6599 14.8462 12.7707 13.995 12.8386C12.1262 12.9878 10.2275 12.8945 8.35458 12.8882C7.44457 12.8853 6.53374 12.8932 5.62374 12.8749C4.85874 12.8595 4.08833 12.8145 3.34166 12.6361C2.59666 12.4582 1.85833 12.139 1.31082 11.5895C0.689992 10.9661 0.714575 10.0407 0.652908 9.21737C0.622492 8.80946 0.582908 8.40321 0.524575 7.99821C0.391658 7.07862 0.385825 6.14696 0.493742 5.22404C0.595408 4.35237 0.729158 3.37737 1.17791 2.60821C1.90624 1.35904 3.41832 0.804874 4.78499 0.634874C5.70041 0.520707 6.62749 0.510707 7.54874 0.497791C8.46624 0.484874 9.38124 0.42779 10.2983 0.411957C12.0729 0.381124 13.8321 0.604041 15.5621 0.988624C15.9617 1.07737 16.4008 1.14612 16.7525 1.36821C17.0667 1.56654 17.2796 1.88737 17.4187 2.22571C17.7287 2.97946 17.7987 3.85071 17.8642 4.65404C18.015 6.51321 17.8858 8.38488 17.67 10.2332L17.67 10.2332Z" transform="translate(0.830843 3.3413734)" id="Shape" fill="#010101" fill-rule="evenodd" stroke="none" />
      <path d="M0.0952522 0C-0.154748 1.86083 0.170252 3.67458 0.136919 5.38833C1.72817 4.49708 3.444 3.60583 5.03567 2.71458C4.38234 2.31167 3.64567 1.9 2.95317 1.56875C2.0315 1.12833 0.870669 0.52375 0.0952522 0L0.0952522 0Z" transform="translate(8.071414 7.305834)" id="Shape" fill="#D6E5E5" fill-rule="evenodd" stroke="none" />
      <path d="M5.43471 2.74845C3.83137 1.76386 2.05971 1.08178 0.494291 0.0338626C0.430125 -0.00905434 0.368458 -0.00697056 0.316791 0.0167791C0.255541 0.0317788 0.203458 0.0742793 0.188457 0.158029C0.00887394 1.1547 -0.046126 2.15428 0.039707 3.16345C0.108874 3.97678 0.235124 4.78303 0.222623 5.60136C0.220123 5.7622 0.40054 5.8572 0.535957 5.78136C2.15971 4.87344 3.81096 4.01595 5.43471 3.10761C5.57429 3.03011 5.56512 2.82886 5.43471 2.74845L5.43471 2.74845ZM0.462207 3.23053C0.382208 2.3347 0.412624 1.44678 0.548041 0.56053C1.94346 1.44803 3.47887 2.08845 4.90679 2.92178C3.48721 3.70886 2.05179 4.46761 0.632207 5.25469C0.613041 4.57761 0.522208 3.90636 0.462207 3.23053L0.462207 3.23053Z" transform="translate(7.7773743 7.0919704)" id="Shape" fill="#010101" fill-rule="evenodd" stroke="none" />
    </g>
  </g>
</svg>